# Blender v3.6.2 OBJ File: ''
# www.blender.org
mtllib Room2.mtl

o ceiling_Mesh
v -279.373932 360.542999 -174.936951
v 279.373932 360.542999 -174.936951
v -279.373932 360.542969 503.823792
v 279.373932 360.542969 503.823792
v 279.373932 360.542969 435.947662
v -279.373932 360.542969 435.947662
v 279.373932 360.542969 411.877167
v -279.373932 360.542969 411.877167
v 279.373932 360.542969 300.195557
v -279.373932 360.542969 300.195557
v 279.373932 360.542969 276.125092
v -279.373932 360.542969 276.125092
v 279.373932 360.542969 164.443405
v -279.373932 360.542969 164.443405
v 279.373932 360.542969 140.372925
v -279.373932 360.542969 140.372925
v 279.373932 360.542999 28.691284
v -279.373932 360.542999 28.691284
v 279.373932 360.542999 4.620804
v -279.373932 360.542999 4.620804
v 279.373932 360.542999 -107.060822
v -279.373932 360.542999 -107.060822
v 279.373932 360.542999 -131.131348
v -279.373932 360.542999 -131.131348
v 279.373932 336.754242 411.877167
v -279.373932 336.754242 411.877167
v 279.373932 336.754242 435.947662
v -279.373932 336.754242 435.947662
v 279.373932 336.754272 276.125092
v -279.373932 336.754272 276.125092
v 279.373932 336.754272 300.195557
v -279.373932 336.754272 300.195557
v 279.373932 336.754272 140.372925
v -279.373932 336.754272 140.372925
v 279.373932 336.754272 164.443405
v -279.373932 336.754272 164.443405
v 279.373932 336.754272 4.620804
v -279.373932 336.754272 4.620804
v 279.373932 336.754272 28.691284
v -279.373932 336.754272 28.691284
v 279.373932 336.754303 -131.131348
v -279.373932 336.754303 -131.131348
v 279.373932 336.754272 -107.060822
v -279.373932 336.754272 -107.060822
v 279.373932 336.754242 503.823792
v -279.373932 336.754242 503.823792
v -279.373932 336.754303 -174.936951
v 279.373932 336.754303 -174.936951
v -7.880863 360.542999 -174.936951
v -131.249390 360.542969 503.823792
v -118.912544 360.542969 435.947662
v -114.537582 360.542969 411.877167
v -94.238831 358.609497 300.195557
v -89.863899 358.609528 276.125092
v -69.565109 352.173157 164.443405
v -65.190193 352.173157 140.372925
v -57.919415 355.313202 28.691284
v -53.544460 355.313232 4.620804
v -20.217701 360.542999 -107.060822
v -15.842765 360.542999 -131.131348
v -103.861122 336.754242 411.877167
v -108.236084 336.754242 435.947662
v -79.187439 334.820801 276.125092
v -83.562370 334.820801 300.195557
v -54.513710 328.384521 140.372925
v -58.888672 328.384521 164.443405
v -42.868000 331.524445 4.620804
v -47.242970 331.524445 28.691284
v -5.166278 336.754303 -131.131348
v -9.541216 336.754272 -107.060822
v 2.795639 336.754303 -174.936951
v -120.572922 336.754242 503.823792
v 100.728935 360.542969 435.947662
v 102.778503 360.542969 411.877167
v 112.288048 358.609497 300.195557
v 114.337616 358.609528 276.125092
v 123.631042 352.325836 164.443405
v 125.680801 352.327667 140.372925
v 122.378273 355.313202 28.691284
v 124.427818 355.313232 4.620804
v 146.965393 360.542999 -107.060822
v 149.014938 360.542999 -131.131348
v 100.989105 336.754242 411.877167
v 98.939522 336.754242 435.947662
v 112.548195 334.820801 276.125092
v 110.498665 334.820801 300.195557
v 123.881851 328.412476 140.372925
v 121.832283 328.412231 164.443405
v 122.638412 331.524445 4.620804
v 120.588875 331.524445 28.691284
v 147.225540 336.754303 -131.131348
v 145.175934 336.754272 -107.060822
v 152.744904 360.542999 -174.936951
v 94.949387 360.542969 503.823792
v 150.955475 336.754303 -174.936951
v 93.159973 336.754242 503.823792
v -13.706480 336.754242 503.823792
v -18.150015 360.542969 503.823792
v -9.091815 358.422424 435.947662
v -4.648280 334.633698 435.947662
v -1.436018 334.633698 411.877167
v -5.879542 358.422424 411.877167
v 9.024600 356.488983 300.195557
v 13.468132 332.700256 300.195557
v 16.680391 332.700256 276.125092
v 12.236869 356.488983 276.125092
v 27.032969 350.128998 164.443405
v 31.471796 326.277832 164.443405
v 34.684078 326.277954 140.372925
v 30.245295 350.129913 140.372925
v 32.229420 353.192749 28.691284
v 36.672939 329.404022 28.691284
v 39.885216 329.404053 4.620804
v 35.441681 353.192749 4.620804
v 63.373829 360.542999 -107.060822
v 67.817360 336.754272 -107.060822
v 71.029617 336.754303 -131.131348
v 66.586067 360.542999 -131.131348
v 72.432022 360.542999 -174.936951
v 76.875557 336.754303 -174.936951
v -104.235870 336.741608 412.259766
v -108.527771 336.746704 435.551453
v -4.618520 334.654755 435.567657
v -1.467237 334.652954 412.276031
v 101.331741 336.746033 412.276428
v 99.321091 336.742310 435.568054
v -79.710381 334.816467 276.792664
v -84.002296 334.823303 299.520538
v 13.497891 332.721375 299.535400
v 16.649172 332.719452 276.807556
v 112.867134 334.822266 276.808044
v 110.856476 334.817474 299.535858
v -55.185429 328.408905 140.808228
v -59.477356 328.419495 163.997711
v 31.501551 326.299011 164.013138
v 34.652851 326.297119 140.823669
v 124.178635 328.445740 140.824875
v 122.167931 328.437958 164.014328
v -43.625572 331.534576 5.067398
v -47.917496 331.543854 28.239197
v 36.702709 329.425293 28.253845
v 39.854000 329.422943 5.081970
v 122.971672 331.542603 5.082397
v 120.961044 331.535889 28.254242
v -6.133902 336.754303 -130.686157
v -10.425787 336.754272 -107.510803
v 67.847122 336.754272 -107.496918
v 70.998398 336.754303 -130.672272
v 147.473206 336.754303 -130.671478
v 145.462540 336.754272 -107.496124
v 279.373932 336.754242 412.352356
v 279.373932 336.754242 435.542358
v -279.373962 336.754242 412.265472
v -279.373932 336.754242 435.517395
v -279.373901 336.754272 276.771149
v -279.373932 336.754272 299.479401
v -279.373932 336.754272 140.813568
v -279.373932 336.754272 163.931702
v -279.373932 336.754272 5.187363
v -279.373932 336.754272 28.174179
v -279.373932 336.754303 -130.480774
v -279.373932 336.754272 -107.529572
v 279.373932 336.754303 -130.674805
v 279.373932 336.754272 -107.507935
v 279.373932 336.754272 5.049469
v 279.373932 336.754272 28.214584
v 279.373932 336.754272 140.812500
v 279.373932 336.754272 163.965363
v 279.373932 336.754272 276.744568
v 279.373932 336.754272 299.553955
vt 0.030506 0.808423
vt 0.030497 0.476138
vt 0.083835 0.485836
vt 0.083851 0.808423
vt 0.224856 0.813899
vt 0.145991 0.813899
vt 0.145991 0.616615
vt 0.224856 0.631783
vt 0.966267 0.323185
vt 0.966267 0.457533
vt 0.750470 0.457359
vt 0.774925 0.323413
vt 0.968779 0.781332
vt 0.968779 0.918283
vt 0.716219 0.918283
vt 0.741467 0.781333
vt 0.970063 0.093347
vt 0.970063 0.228923
vt 0.705809 0.228959
vt 0.714417 0.093296
vt 0.966267 0.550661
vt 0.966267 0.686206
vt 0.656400 0.686369
vt 0.696789 0.550675
vt 0.761899 0.295094
vt 0.966267 0.294713
vt 0.145991 0.126928
vt 0.145991 0.346569
vt 0.120137 0.343847
vt 0.120137 0.126609
vt 0.728060 0.753121
vt 0.968779 0.753289
vt 0.284375 0.456556
vt 0.502064 0.457015
vt 0.504538 0.485362
vt 0.284375 0.484944
vt 0.700494 0.065008
vt 0.970063 0.064617
vt 0.286887 0.918283
vt 0.478425 0.918283
vt 0.481586 0.944994
vt 0.286888 0.944993
vt 0.683192 0.522243
vt 0.966267 0.521921
vt 0.288172 0.230360
vt 0.486565 0.229514
vt 0.489664 0.258113
vt 0.288172 0.259031
vt 0.112688 0.472828
vt 0.112707 0.808423
vt 0.284375 0.688027
vt 0.453445 0.687024
vt 0.455775 0.715759
vt 0.284375 0.716772
vt 0.145560 0.113029
vt 0.225618 0.113029
vt 0.224856 0.126929
vt 0.146048 0.827799
vt 0.225129 0.827799
vt 0.255311 0.456490
vt 0.255311 0.322701
vt 0.284375 0.322764
vt 0.995081 0.457605
vt 0.995081 0.323186
vt 0.257823 0.918283
vt 0.257823 0.781332
vt 0.286888 0.781332
vt 0.997594 0.918283
vt 0.997594 0.781332
vt 0.259107 0.230511
vt 0.259107 0.095244
vt 0.288172 0.095092
vt 0.998878 0.228949
vt 0.998878 0.093347
vt 0.255311 0.688210
vt 0.255311 0.552714
vt 0.284375 0.552530
vt 0.995081 0.686228
vt 0.995081 0.550661
vt 0.030519 0.126532
vt 0.030519 0.280592
vt 0.001697 0.282767
vt 0.001701 0.126532
vt 0.251041 0.624655
vt 0.251041 0.813780
vt 0.083854 0.837487
vt 0.030509 0.837487
vt 0.083790 0.126532
vt 0.030519 0.097717
vt 0.083788 0.097717
vt 0.083819 0.385453
vt 0.030509 0.378338
vt 0.083801 0.285128
vt 0.224856 0.492729
vt 0.145991 0.481592
vt 0.224856 0.353675
vt 0.643589 0.750243
vt 0.647062 0.720907
vt 0.771675 0.720907
vt 0.768202 0.750243
vt 0.644262 0.322974
vt 0.626217 0.457576
vt 0.513691 0.323271
vt 0.669170 0.057261
vt 0.673346 0.027926
vt 0.790196 0.027926
vt 0.787413 0.057261
vt 0.616110 0.781333
vt 0.597386 0.918283
vt 0.490614 0.781333
vt 0.688600 0.291453
vt 0.692154 0.262118
vt 0.802073 0.262118
vt 0.799405 0.291453
vt 0.598245 0.093449
vt 0.596179 0.229403
vt 0.482105 0.093919
vt 0.698785 0.518856
vt 0.702433 0.489521
vt 0.802112 0.489521
vt 0.800111 0.518856
vt 0.588489 0.550362
vt 0.554917 0.686566
vt 0.480120 0.551148
vt 0.731625 0.978555
vt 0.734691 0.949220
vt 0.830766 0.949220
vt 0.828722 0.978555
vt 0.638950 0.294446
vt 0.516059 0.294922
vt 0.120137 0.608873
vt 0.120137 0.813780
vt 0.610819 0.753030
vt 0.493414 0.753303
vt 0.737250 0.485604
vt 0.966267 0.485996
vt 0.592867 0.064665
vt 0.485320 0.065157
vt 0.702178 0.944993
vt 0.968779 0.944993
vt 0.583074 0.521573
vt 0.482937 0.522463
vt 0.692219 0.257383
vt 0.970063 0.257669
vt 0.112654 0.380036
vt 0.112624 0.287301
vt 0.643466 0.715132
vt 0.966267 0.714956
vt 0.001644 0.463130
vt 0.001630 0.808423
vt 0.251040 0.487948
vt 0.251040 0.351240
vt 0.120137 0.476360
vt 0.620859 0.486082
vt 0.591929 0.944993
vt 0.590913 0.258167
vt 0.549621 0.715330
vt 0.001675 0.372923
vt 0.997449 0.720907
vt 0.997449 0.750243
vt 0.997408 0.027926
vt 0.997408 0.057261
vt 0.995171 0.262118
vt 0.995171 0.291453
vt 0.995171 0.489521
vt 0.995171 0.518856
vt 0.995171 0.949220
vt 0.995171 0.978555
vt 0.284375 0.294372
vt 0.286887 0.753121
vt 0.288172 0.066442
vt 0.284375 0.523794
vt 0.112607 0.126532
vt 0.251041 0.126609
vt 0.518880 0.750243
vt 0.523510 0.720907
vt 0.544941 0.057261
vt 0.550978 0.027926
vt 0.572916 0.291453
vt 0.578961 0.262118
vt 0.588547 0.518856
vt 0.593643 0.489521
vt 0.630381 0.978555
vt 0.634470 0.949220
vt 0.117986 0.609246
vt 0.117920 0.813780
vt 0.305111 0.750243
vt 0.305111 0.720907
vt 0.515648 0.294443
vt 0.638988 0.293967
vt 0.118017 0.476322
vt 0.118018 0.343359
vt 0.284375 0.293802
vt 0.117968 0.126609
vt 0.762349 0.294635
vt 0.737778 0.486414
vt 0.966267 0.486857
vt 0.301643 0.057261
vt 0.301643 0.027926
vt 0.493027 0.752484
vt 0.610861 0.752484
vt 0.620822 0.486873
vt 0.504106 0.486152
vt 0.286887 0.752484
vt 0.284375 0.485713
vt 0.728702 0.752484
vt 0.702900 0.946456
vt 0.968779 0.946018
vt 0.301875 0.291453
vt 0.301875 0.262118
vt 0.484956 0.064612
vt 0.592905 0.064121
vt 0.591892 0.946456
vt 0.481169 0.946237
vt 0.288172 0.065910
vt 0.701308 0.064481
vt 0.693037 0.257930
vt 0.970063 0.258296
vt 0.301875 0.518856
vt 0.301875 0.489521
vt 0.482528 0.521906
vt 0.583111 0.521015
vt 0.590879 0.258695
vt 0.489215 0.258642
vt 0.284375 0.523274
vt 0.684111 0.521703
vt 0.644540 0.715677
vt 0.966267 0.715525
vt 0.301875 0.978555
vt 0.301875 0.949220
vt 0.113183 0.287000
vt 0.113213 0.380075
vt 0.549587 0.715859
vt 0.455431 0.716289
vt 0.113163 0.126532
vt 0.284375 0.717315
vt 0.113230 0.474006
vt 0.966267 0.294246
vt 0.968779 0.752484
vt 0.970063 0.064083
vt 0.966267 0.521234
vt 0.113499 0.808423
vt 0.288172 0.259608
vt 0.286888 0.945201
vn 0.0000 -1.0000 -0.0000
vn -0.0046 -1.0000 0.0068
vn -0.0035 -1.0000 0.0053
vn -0.0055 -1.0000 0.0082
vn -0.0118 -0.9999 0.0108
vn -0.0103 -0.9999 0.0101
vn -0.0258 -0.9993 0.0265
vn -0.0239 -0.9990 0.0371
vn -0.0244 -0.9991 0.0343
vn -0.0312 -0.9994 -0.0151
vn -0.0284 -0.9994 -0.0194
vn -0.0287 -0.9994 -0.0189
vn -0.0108 -0.9996 -0.0250
vn -0.0113 -0.9993 -0.0368
vn -0.0111 -0.9994 -0.0318
vn 0.0000 0.0000 -1.0000
vn 0.0000 0.0000 1.0000
vn -1.0000 0.0000 0.0000
vn 1.0000 0.0000 0.0000
vn -0.0008 -0.9999 0.0153
vn 0.0008 -0.9999 0.0155
vn 0.0034 -1.0000 0.0059
vn 0.0039 -1.0000 0.0068
vn -0.0017 -1.0000 -0.0008
vn 0.0017 -1.0000 -0.0001
vn 0.0069 -1.0000 0.0005
vn 0.0079 -1.0000 0.0010
vn -0.0017 -0.9999 0.0166
vn 0.0017 -0.9999 0.0171
vn 0.0108 -0.9999 0.0127
vn 0.0115 -0.9998 0.0132
vn -0.0018 -1.0000 -0.0010
vn 0.0018 -1.0000 0.0000
vn 0.0150 -0.9999 0.0012
vn 0.0156 -0.9999 0.0013
vn -0.0014 -0.9984 0.0562
vn 0.0022 -0.9984 0.0566
vn 0.0280 -0.9988 0.0400
vn 0.0276 -0.9988 0.0415
vn -0.0018 -1.0000 -0.0017
vn 0.0021 -1.0000 0.0006
vn 0.0432 -0.9991 0.0028
vn 0.0418 -0.9991 0.0019
vn 0.0002 -0.9996 -0.0280
vn 0.0007 -0.9996 -0.0279
vn 0.0356 -0.9992 -0.0191
vn 0.0359 -0.9992 -0.0188
vn -0.0021 -1.0000 -0.0013
vn 0.0021 -1.0000 0.0002
vn 0.0306 -0.9995 0.0020
vn 0.0302 -0.9995 0.0017
vn -0.0019 -0.9984 -0.0570
vn 0.0019 -0.9984 -0.0561
vn 0.0163 -0.9994 -0.0317
vn 0.0156 -0.9992 -0.0355
vn 0.0000 -1.0000 -0.0003
vn 0.0001 -1.0000 0.0002
vn 0.0056 -0.9999 0.0089
vn 0.0115 -0.9999 0.0003
vn 0.0115 -0.9999 0.0006
vn 0.0316 -0.9991 0.0294
vn 0.0531 -0.9986 0.0025
vn 0.0531 -0.9986 0.0019
vn 0.0432 -0.9990 -0.0140
vn 0.0331 -0.9995 0.0014
vn 0.0330 -0.9995 0.0011
vn 0.0182 -0.9996 -0.0216
vn -0.0065 -1.0000 -0.0008
vn -0.0086 -1.0000 -0.0016
vn -0.0131 -0.9999 -0.0015
vn -0.0143 -0.9999 -0.0019
vn -0.0341 -0.9994 -0.0037
vn -0.0328 -0.9995 -0.0032
vn -0.0229 -0.9997 -0.0024
vn -0.0232 -0.9997 -0.0026
vn -0.0117 -0.9999 -0.0022
vn -0.0000 -1.0000 0.0091
vn -0.0000 -1.0000 0.0003
vn -0.0001 -1.0000 -0.0002
vn 0.0015 -1.0000 0.0021
vn 0.0120 -0.9999 -0.0005
vn 0.0128 -0.9999 0.0050
vn -0.0010 -1.0000 -0.0061
vn 0.0000 -1.0000 -0.0094
vn 0.0000 -0.9999 0.0152
vn -0.0131 -0.9999 -0.0073
vn -0.0159 -0.9999 -0.0050
vn -0.0099 -1.0000 0.0013
vn -0.0098 -1.0000 -0.0007
vn -0.0098 -1.0000 -0.0010
vn 0.0007 -1.0000 0.0064
vn 0.0169 -0.9998 0.0046
vn 0.0169 -0.9999 -0.0011
vn -0.0006 -1.0000 -0.0091
vn 0.0116 -0.9999 -0.0017
vn 0.0115 -0.9999 0.0057
vn -0.0164 -0.9999 -0.0021
vn -0.0292 -0.9990 -0.0346
vn -0.0379 -0.9992 -0.0133
vn -0.0375 -0.9993 -0.0035
vn -0.0375 -0.9993 -0.0032
vn 0.0012 -0.9991 0.0412
vn 0.0369 -0.9986 0.0371
vn 0.0360 -0.9989 -0.0293
vn -0.0012 -0.9989 -0.0470
vn 0.0535 -0.9984 0.0194
vn -0.0284 -0.9994 0.0194
vn -0.0241 -0.9995 -0.0180
vn -0.0225 -0.9997 -0.0043
vn -0.0223 -0.9997 -0.0019
vn -0.0223 -0.9997 -0.0020
vn 0.0011 -0.9998 0.0213
vn 0.0290 -0.9994 0.0213
vn 0.0285 -0.9995 -0.0144
vn -0.0011 -0.9996 -0.0266
vn 0.0333 -0.9994 0.0079
vn -0.0241 -0.9997 0.0034
vn 0.0000 -1.0000 -0.0001
vn -0.0000 -0.9999 -0.0165
vn -0.0097 -0.9999 -0.0072
vn -0.0372 -0.9993 -0.0006
vn -0.0221 -0.9997 -0.0066
vn 0.0329 -0.9995 0.0009
vn 0.0528 -0.9986 -0.0087
usemtl ./mat0

s 1
f 1/1/1 49/2/1 60/3/1 24/4/1
f 3/5/1 6/6/1 51/7/2 50/8/3
f 8/9/4 10/10/4 53/11/5 52/12/6
f 12/13/7 14/14/7 55/15/8 54/16/9
f 16/17/10 18/18/10 57/19/11 56/20/12
f 20/21/13 22/22/13 59/23/14 58/24/15
f 8/9/16 52/12/16 61/25/16 26/26/16
f 5/27/17 73/28/17 84/29/17 27/30/17
f 12/13/16 54/16/16 63/31/16 30/32/16
f 9/33/17 75/34/17 86/35/17 31/36/17
f 16/17/16 56/20/16 65/37/16 34/38/16
f 13/39/17 77/40/17 88/41/17 35/42/17
f 20/21/16 58/24/16 67/43/16 38/44/16
f 17/45/17 79/46/17 90/47/17 39/48/17
f 24/4/16 60/3/16 69/49/16 42/50/16
f 21/51/17 81/52/17 92/53/17 43/54/17
f 5/27/18 27/55/18 45/56/18 4/57/18
f 28/58/19 6/6/19 3/5/19 46/59/19
f 9/33/18 31/60/18 25/61/18 7/62/18
f 32/63/19 10/10/19 8/9/19 26/64/19
f 13/39/18 35/65/18 29/66/18 11/67/18
f 36/68/19 14/14/19 12/13/19 30/69/19
f 17/45/18 39/70/18 33/71/18 15/72/18
f 40/73/19 18/18/19 16/17/19 34/74/19
f 21/51/18 43/75/18 37/76/18 19/77/18
f 44/78/19 22/22/19 20/21/19 38/79/19
f 2/80/17 93/81/17 95/82/17 48/83/17
f 3/5/16 50/8/16 72/84/16 46/85/16
f 1/1/19 24/4/19 42/86/19 47/87/19
f 23/88/18 2/80/18 48/89/18 41/90/18
f 118/91/1 119/92/1 93/81/1 82/93/1
f 98/94/20 99/95/21 73/28/22 94/96/23
f 123/97/24 124/98/25 125/99/26 126/100/27
f 102/101/28 103/102/29 75/34/30 74/103/31
f 129/104/32 130/105/33 131/106/34 132/107/35
f 106/108/36 107/109/37 77/40/38 76/110/39
f 135/111/40 136/112/41 137/113/42 138/114/43
f 110/115/44 111/116/45 79/46/46 78/117/47
f 141/118/48 142/119/49 143/120/50 144/121/51
f 114/122/52 115/123/53 81/52/54 80/124/55
f 147/125/1 148/126/1 149/127/1 150/128/1
f 101/129/16 102/101/16 74/103/16 83/130/16
f 62/131/17 51/7/17 6/6/17 28/132/17
f 105/133/16 106/108/16 76/110/16 85/134/16
f 64/135/17 53/11/17 10/10/17 32/136/17
f 109/137/16 110/115/16 78/117/16 87/138/16
f 66/139/17 55/15/17 14/14/17 36/140/17
f 113/141/16 114/122/16 80/124/16 89/142/16
f 68/143/17 57/19/17 18/18/17 40/144/17
f 117/145/16 118/91/16 82/93/16 91/146/16
f 70/147/17 59/23/17 22/22/17 44/148/17
f 71/149/17 49/2/17 1/1/17 47/150/17
f 97/151/16 98/94/16 94/96/16 96/152/16
f 84/29/17 73/28/17 99/95/17 100/153/17
f 86/35/17 75/34/17 103/102/17 104/154/17
f 88/41/17 77/40/17 107/109/17 108/155/17
f 90/47/17 79/46/17 111/116/17 112/156/17
f 92/53/17 81/52/17 115/123/17 116/157/17
f 95/82/17 93/81/17 119/92/17 120/158/17
f 82/93/1 93/81/1 2/80/1 23/88/1
f 94/96/23 73/28/22 5/27/1 4/57/1
f 126/100/27 125/99/26 151/159/56 152/160/57
f 74/103/31 75/34/30 9/33/58 7/62/58
f 132/107/35 131/106/34 169/161/59 170/162/60
f 76/110/39 77/40/38 13/39/61 11/67/61
f 138/114/43 137/113/42 167/163/62 168/164/63
f 78/117/47 79/46/46 17/45/64 15/72/64
f 144/121/51 143/120/50 165/165/65 166/166/66
f 80/124/55 81/52/54 21/51/67 19/77/67
f 150/128/1 149/127/1 163/167/1 164/168/1
f 83/130/16 74/103/16 7/62/16 25/169/16
f 85/134/16 76/110/16 11/67/16 29/170/16
f 87/138/16 78/117/16 15/72/16 33/171/16
f 89/142/16 80/124/16 19/77/16 37/172/16
f 91/146/16 82/93/16 23/88/16 41/173/16
f 96/152/16 94/96/16 4/57/16 45/174/16
f 72/84/16 50/8/16 98/94/16 97/151/16
f 50/8/3 51/7/2 99/95/21 98/94/20
f 100/153/17 99/95/17 51/7/17 62/131/17
f 122/175/68 121/176/69 124/98/25 123/97/24
f 61/25/16 52/12/16 102/101/16 101/129/16
f 52/12/6 53/11/5 103/102/29 102/101/28
f 104/154/17 103/102/17 53/11/17 64/135/17
f 128/177/70 127/178/71 130/105/33 129/104/32
f 63/31/16 54/16/16 106/108/16 105/133/16
f 54/16/9 55/15/8 107/109/37 106/108/36
f 108/155/17 107/109/17 55/15/17 66/139/17
f 134/179/72 133/180/73 136/112/41 135/111/40
f 65/37/16 56/20/16 110/115/16 109/137/16
f 56/20/12 57/19/11 111/116/45 110/115/44
f 112/156/17 111/116/17 57/19/17 68/143/17
f 140/181/74 139/182/75 142/119/49 141/118/48
f 67/43/16 58/24/16 114/122/16 113/141/16
f 58/24/15 59/23/14 115/123/53 114/122/52
f 116/157/17 115/123/17 59/23/17 70/147/17
f 146/183/1 145/184/1 148/126/1 147/125/1
f 69/49/16 60/3/16 118/91/16 117/145/16
f 60/3/1 49/2/1 119/92/1 118/91/1
f 120/158/17 119/92/17 49/2/17 71/149/17
f 122/185/68 62/131/76 28/132/77 154/186/78
f 122/175/68 154/187/78 153/188/79 121/176/69
f 101/129/80 83/130/81 125/189/26 124/190/25
f 84/29/82 100/153/83 123/191/24 126/192/27
f 125/189/26 83/130/81 25/169/84 151/193/56
f 126/192/27 152/194/57 27/30/85 84/29/82
f 61/25/86 101/129/80 124/190/25 121/195/69
f 100/153/83 62/131/76 122/185/68 123/191/24
f 128/196/70 64/135/87 32/136/88 156/197/89
f 128/177/70 156/198/89 155/199/90 127/178/71
f 105/133/91 85/134/92 131/200/34 130/201/33
f 86/35/93 104/154/94 129/202/32 132/203/35
f 131/200/34 85/134/92 29/170/95 169/204/59
f 132/203/35 170/205/60 31/36/96 86/35/93
f 63/31/97 105/133/91 130/201/33 127/206/71
f 104/154/94 64/135/87 128/196/70 129/202/32
f 134/207/72 66/139/98 36/140/99 158/208/100
f 134/179/72 158/209/100 157/210/101 133/180/73
f 109/137/102 87/138/103 137/211/42 136/212/41
f 88/41/104 108/155/105 135/213/40 138/214/43
f 137/211/42 87/138/103 33/171/106 167/215/62
f 65/37/107 109/137/102 136/212/41 133/216/73
f 108/155/105 66/139/98 134/207/72 135/213/40
f 140/217/74 68/143/108 40/144/109 160/218/110
f 140/181/74 160/219/110 159/220/111 139/182/75
f 113/141/112 89/142/113 143/221/50 142/222/49
f 90/47/114 112/156/115 141/223/48 144/224/51
f 143/221/50 89/142/113 37/172/116 165/225/65
f 67/43/117 113/141/112 142/222/49 139/226/75
f 112/156/115 68/143/108 140/217/74 141/223/48
f 146/227/1 70/147/1 44/148/118 162/228/1
f 146/183/1 162/229/1 161/230/1 145/184/1
f 117/145/1 91/146/1 149/231/1 148/232/1
f 92/53/1 116/157/1 147/233/1 150/234/1
f 149/231/1 91/146/1 41/173/1 163/235/1
f 150/234/1 164/236/1 43/54/1 92/53/1
f 69/49/1 117/145/1 148/232/1 145/237/1
f 116/157/1 70/147/1 146/227/1 147/233/1
f 121/195/69 153/238/79 26/26/119 61/25/86
f 127/206/71 155/239/90 30/32/120 63/31/97
f 133/216/73 157/240/101 34/38/121 65/37/107
f 139/226/75 159/241/111 38/44/122 67/43/117
f 145/237/1 161/242/1 42/50/1 69/49/1
f 144/224/51 166/243/66 39/48/123 90/47/114
f 138/214/43 168/244/63 35/42/124 88/41/104
o wallsAndFloor_Mesh.001
v -281.138092 -0.920303 505.825378
v 281.138092 -0.920303 505.825378
v -281.138092 360.542969 505.825378
v 281.138092 360.542969 505.825378
v -281.138092 360.542908 -176.938522
v 281.138092 360.542908 -176.938522
v -281.138092 -0.920364 -176.938522
v 281.138092 -0.920364 -176.938522
vt 0.267425 0.287539
vt 0.017422 0.287538
vt 0.017432 0.676423
vt 0.267415 0.676445
vt 0.979774 0.287525
vt 0.739667 0.287565
vt 0.739657 0.676461
vt 0.990958 0.676420
vt 0.267419 0.926419
vt 0.739654 0.919782
vt 0.739633 0.037531
vt 0.267425 0.037539
vn 0.0000 0.0000 -1.0000
vn 0.0000 0.0000 1.0000
vn 0.0000 1.0000 -0.0000
vn -1.0000 0.0000 0.0000
vn 1.0000 0.0000 0.0000
usemtl ./mat1
s 1
f 171/245/125 173/246/125 174/247/125 172/248/125
f 175/249/126 177/250/126 178/251/126 176/252/126
f 177/250/127 171/245/127 172/248/127 178/251/127
f 172/248/128 174/253/128 176/254/128 178/251/128
f 177/250/129 175/255/129 173/256/129 171/245/129
o theDoor:door_Mesh.004
v -69.804848 -0.920287 -169.219711
v 69.804848 -0.920287 -169.219711
v -69.804848 324.835510 -169.219727
v 69.804848 324.835510 -169.219727
v -69.804848 324.835510 -184.731918
v 69.804848 324.835510 -184.731918
v -69.804848 -0.920288 -184.731888
v 69.804848 -0.920288 -184.731888
v -86.830322 342.166260 -169.219727
v 86.830322 342.166260 -169.219727
v 86.830322 342.166260 -184.731918
v -86.830322 342.166260 -184.731918
v 86.830322 -0.920277 -184.731888
v 86.830322 -0.920276 -169.219711
v -86.830322 -0.920277 -184.731888
v -86.830322 -0.920276 -169.219711
v -69.804848 -0.920287 -174.220932
v 69.804848 -0.920287 -174.220932
v 69.804848 324.835510 -174.220963
v -69.804848 324.835510 -174.220963
v -69.051437 1.056891 -174.220947
v 69.051437 1.056891 -174.220947
v 69.051437 323.934967 -174.220978
v -69.051437 323.934967 -174.220978
v -69.051437 1.056892 -169.268478
v 69.051437 1.056892 -169.268478
v 69.051437 323.934967 -169.268509
v -69.051437 323.934967 -169.268509
vt 0.058705 0.498559
vt 0.058705 0.120246
vt 0.943182 0.120246
vt 0.943182 0.498559
vt 0.059009 0.010938
vt 0.943486 0.010938
vt 0.992153 0.120246
vt 0.992153 0.498559
vt 0.942881 0.617146
vt 0.058404 0.617146
vt 0.011831 0.857724
vt 0.290821 0.857724
vt 0.290821 0.977055
vt 0.011831 0.977055
vt 0.009735 0.498559
vt 0.009735 0.120246
vt 0.005013 0.796815
vt 0.384399 0.796815
vt 0.384399 0.834605
vt 0.005013 0.834605
vt 0.972329 0.924387
vt 0.972329 0.963009
vt 0.300444 0.963009
vt 0.300444 0.924387
vt 0.972329 0.659275
vt 0.972329 0.699070
vt 0.300444 0.699070
vt 0.300444 0.659275
vt 0.043285 0.751393
vt 0.344460 0.751393
vt 0.107228 0.671899
vt 0.269334 0.671898
vt 0.296564 0.703062
vt 0.083397 0.703062
vt 0.972329 0.884448
vt 0.998043 0.884448
vt 0.998043 0.924387
vt 0.878087 0.801285
vt 0.451361 0.801285
vt 0.420198 0.777454
vt 0.878086 0.777454
vt 0.345866 0.884448
vt 0.998043 0.737342
vt 0.972329 0.737342
vt 0.998043 0.699070
vt 0.345866 0.737342
vt 0.451361 0.809323
vt 0.878086 0.809323
vt 0.878086 0.836552
vt 0.420198 0.836552
vt 0.386551 0.841207
vt 0.972329 0.841207
vt 0.079092 0.710708
vt 0.301219 0.710708
vt 0.972329 0.773149
vt 0.386551 0.773149
vn 0.0000 0.0000 1.0000
vn 1.0000 -0.0000 0.0000
vn 0.0000 1.0000 0.0000
vn -1.0000 -0.0000 0.0000
vn 0.0000 -0.0000 -1.0000
vn 0.0000 -1.0000 0.0000
usemtl ./mat2
s 1
f 203/257/130 204/258/130 205/259/130 206/260/130
f 200/261/131 201/262/131 205/259/131 204/258/131
f 201/263/132 202/264/132 206/260/132 205/259/132
f 202/265/133 199/266/133 203/257/133 206/260/133
f 201/267/134 200/268/134 199/269/134 202/270/134
f 199/271/135 200/272/135 204/258/135 203/257/135
usemtl ./mat3
f 187/273/132 188/274/132 189/275/132 190/276/132
f 192/277/131 191/278/131 189/279/131 188/280/131
f 193/281/133 194/282/133 187/283/133 190/284/133
f 181/285/130 182/286/130 188/274/130 187/273/130
f 184/287/134 183/288/134 190/289/134 189/290/134
f 180/291/135 186/292/135 191/293/135 192/277/135
f 186/294/134 184/295/134 189/296/134 191/297/134
f 182/298/130 180/291/130 192/277/130 188/280/130
f 185/299/135 179/300/135 194/282/135 193/301/135
f 179/300/130 181/302/130 187/283/130 194/282/130
f 183/303/134 185/304/134 193/305/134 190/306/134
f 180/291/133 182/298/133 197/307/133 196/308/133
f 182/286/135 181/285/135 198/309/135 197/310/135
f 181/302/131 179/300/131 195/311/131 198/312/131
