# Blender v3.6.2 OBJ File: ''
# www.blender.org
mtllib Room3.mtl
o ceiling
v -215.666077 278.325500 -135.044708
v -6.083727 278.325500 -135.044708
v -12.230013 278.325500 -101.228447
v -215.666077 278.325500 -101.228447
v -215.666077 278.325531 388.932800
v -215.666077 278.325531 336.535034
v -91.795975 278.325531 336.535034
v -101.319550 278.325531 388.932800
v -215.666077 278.325531 317.953522
v -215.666077 278.325531 231.739563
v -72.748802 276.832947 231.739563
v -88.418663 278.325531 317.953522
v -215.666077 278.325531 213.158081
v -215.666077 278.325500 126.944046
v -53.701626 271.864319 126.944046
v -69.371521 276.832977 213.158081
v -215.666077 278.325500 108.362549
v -215.666077 278.325500 22.148561
v -44.711590 274.288300 22.148561
v -50.324356 271.864319 108.362549
v -215.666077 278.325500 3.567064
v -215.666077 278.325500 -82.646912
v -15.607298 278.325500 -82.646912
v -41.334290 274.288330 3.567065
v -80.176842 259.961517 317.953522
v -215.666077 259.961517 317.953522
v 215.666077 278.325531 336.535034
v 77.758919 278.325531 336.535034
v 76.377556 259.961517 336.535034
v 215.666077 259.961517 336.535034
v -61.129696 258.468994 213.158081
v -215.666077 259.961548 213.158081
v 215.666077 278.325531 231.739563
v 86.682114 276.832947 231.739563
v 85.300774 258.468994 231.739563
v 215.666077 259.961548 231.739563
v -42.082516 253.500397 108.362549
v -215.666077 259.961517 108.362549
v 215.666077 278.325500 126.944046
v 95.438469 271.982178 126.944046
v 94.049896 253.521790 126.944046
v 215.666077 259.961517 126.944046
v -33.092468 255.924286 3.567066
v -215.666077 259.961517 3.567066
v 215.666077 278.325500 22.148561
v 94.471382 274.288300 22.148561
v 93.090034 255.924286 22.148563
v 215.666077 259.961517 22.148563
v -3.988170 259.961548 -101.228447
v -215.666077 259.961548 -101.228447
v 215.666077 278.325500 -82.646912
v 113.451706 278.325500 -82.646912
v 112.070312 259.961517 -82.646912
v 215.666077 259.961517 -82.646912
v 215.666077 259.961517 388.932800
v 215.666077 278.325531 388.932800
v -215.666077 259.961517 336.535034
v -215.666077 259.961517 388.932800
v 215.666077 259.961517 317.953522
v 215.666077 278.325531 317.953522
v -215.666077 259.961548 231.739563
v 215.666077 259.961548 213.158081
v 215.666077 278.325531 213.158081
v -215.666077 259.961517 126.944046
v 215.666077 259.961517 108.362549
v 215.666077 278.325500 108.362549
v -215.666077 259.961517 22.148563
v 215.666077 259.961517 3.567066
v 215.666077 278.325500 3.567064
v -215.666077 259.961517 -82.646912
v 215.666077 278.325500 -135.044708
v 117.913269 278.325500 -135.044708
v 116.531898 259.961548 -135.044708
v 215.666077 259.961548 -135.044708
v -93.077721 259.961517 388.932800
v -215.666077 259.961548 -135.044708
v 215.666077 278.325500 -101.228447
v 215.666077 259.961548 -101.228447
v 51.401917 278.325500 -101.228447
v 55.914772 278.325500 -135.044708
v 115.033875 278.325500 -101.228447
v -14.011123 278.325531 388.932800
v -7.018536 276.688538 336.535034
v 73.297325 278.325531 388.932800
v -3.565322 258.340790 336.241669
v -1.132651 258.339417 318.261414
v 78.224258 259.955200 318.261719
v 76.672112 259.952301 336.241974
v -4.538783 276.688538 317.953522
v 6.966649 275.195984 231.739563
v 79.341103 278.325531 317.953522
v 10.419860 256.848297 231.229950
v 12.852529 256.846832 213.684906
v 87.129143 258.470123 213.685287
v 85.576988 258.466400 231.230301
v 9.446399 275.195984 213.158081
v 20.868425 270.286285 126.944046
v 88.264297 276.832977 213.158081
v 24.318001 251.890472 126.611900
v 26.750687 251.889008 108.710510
v 95.861191 253.547653 108.711433
v 94.309006 253.541656 126.612816
v 23.348219 270.287018 108.362549
v 24.879889 272.651398 22.148561
v 97.020805 271.983582 108.362549
v 28.333099 254.303818 21.810877
v 30.765776 254.302002 3.923069
v 94.929466 255.938309 3.923398
v 93.377335 255.933121 21.811184
v 27.359632 272.651398 3.567065
v 48.922192 278.325500 -82.646912
v 96.053551 274.288330 3.567065
v 52.375404 259.961517 -82.983566
v 54.808067 259.961548 -100.874054
v 113.843719 259.961548 -100.873444
v 112.291557 259.961517 -82.982948
v -1.108551 258.324554 317.953522
v 77.959755 259.961517 317.953522
v -83.554146 259.961517 336.535034
v 12.876629 256.832001 213.158081
v 86.882935 258.468994 213.158081
v -64.506981 258.468994 231.739563
v 26.774792 251.874207 108.362556
v 95.632088 253.521988 108.362549
v -45.459820 253.500397 126.944046
v 30.789873 254.287430 3.567066
v 94.672203 255.924286 3.567066
v -36.469780 255.924286 22.148563
v 54.832169 259.961548 -101.228447
v 113.652527 259.961548 -101.228447
v -7.365457 259.961517 -82.646912
v 2.158127 259.961548 -135.044708
v -10.580882 259.961517 388.932800
v 71.915962 259.961517 388.932800
v -3.588296 258.324554 336.535034
v 10.396887 256.832001 231.739563
v 24.295033 251.874115 126.944054
v 28.310118 254.287399 22.148563
v 52.352428 259.961517 -82.646912
v 59.345013 259.961548 -135.044708
v 215.666077 259.961517 318.320343
v 215.666077 259.961517 336.222137
v 215.666077 259.961548 213.636292
v 215.666077 259.961548 231.244263
v 215.666077 259.961517 108.701881
v 215.666077 259.961517 126.575012
v 215.666077 259.961517 3.897979
v 215.666077 259.961517 21.780569
v 215.666077 259.961548 -100.876015
v 215.666077 259.961517 -82.992065
v -83.779320 259.955719 336.229156
v -80.466133 259.951782 318.248871
v -64.846588 258.470917 231.218475
v -61.533390 258.465637 213.673416
v -45.914261 253.527405 126.599983
v -42.601055 253.519226 108.698586
v -36.990490 255.939270 21.799568
v -33.677284 255.932114 3.911820
v -8.048312 259.961517 -82.994286
v -4.735139 259.961548 -100.884773
v -215.666077 259.961517 336.202881
v -215.666092 259.961517 318.253265
v -215.666077 259.961548 231.186722
v -215.666046 259.961548 213.656815
v -215.666077 259.961517 126.549026
v -215.666077 259.961517 108.702705
v -215.666077 259.961517 21.749378
v -215.666077 259.961517 4.004428
v -215.666077 259.961517 -83.008774
v -215.666077 259.961548 -100.726227
vt 0.030506 0.808423
vt 0.030497 0.476138
vt 0.083835 0.485836
vt 0.083851 0.808423
vt 0.224856 0.813899
vt 0.145991 0.813899
vt 0.145991 0.616615
vt 0.224856 0.631783
vt 0.966267 0.323185
vt 0.966267 0.457533
vt 0.750470 0.457359
vt 0.774925 0.323413
vt 0.968779 0.781332
vt 0.968779 0.918283
vt 0.716219 0.918283
vt 0.741467 0.781333
vt 0.970063 0.093347
vt 0.970063 0.228923
vt 0.705809 0.228959
vt 0.714417 0.093296
vt 0.966267 0.550661
vt 0.966267 0.686206
vt 0.656400 0.686369
vt 0.696789 0.550675
vt 0.761899 0.295094
vt 0.966267 0.294713
vt 0.145991 0.126928
vt 0.145991 0.346569
vt 0.120137 0.343847
vt 0.120137 0.126609
vt 0.728060 0.753121
vt 0.968779 0.753289
vt 0.284375 0.456556
vt 0.502064 0.457015
vt 0.504538 0.485362
vt 0.284375 0.484944
vt 0.700494 0.065008
vt 0.970063 0.064617
vt 0.286887 0.918283
vt 0.478425 0.918283
vt 0.481586 0.944994
vt 0.286888 0.944993
vt 0.683192 0.522243
vt 0.966267 0.521921
vt 0.288172 0.230360
vt 0.486565 0.229514
vt 0.489664 0.258113
vt 0.288172 0.259031
vt 0.112688 0.472828
vt 0.112707 0.808423
vt 0.284375 0.688027
vt 0.453445 0.687024
vt 0.455775 0.715759
vt 0.284375 0.716772
vt 0.145560 0.113029
vt 0.225618 0.113029
vt 0.224856 0.126929
vt 0.146048 0.827799
vt 0.225129 0.827799
vt 0.255311 0.456490
vt 0.255311 0.322701
vt 0.284375 0.322764
vt 0.995081 0.457605
vt 0.995081 0.323186
vt 0.257823 0.918283
vt 0.257823 0.781332
vt 0.286888 0.781332
vt 0.997594 0.918283
vt 0.997594 0.781332
vt 0.259107 0.230511
vt 0.259107 0.095244
vt 0.288172 0.095092
vt 0.998878 0.228949
vt 0.998878 0.093347
vt 0.255311 0.688210
vt 0.255311 0.552714
vt 0.284375 0.552530
vt 0.995081 0.686228
vt 0.995081 0.550661
vt 0.030519 0.126532
vt 0.030519 0.280592
vt 0.001697 0.282767
vt 0.001701 0.126532
vt 0.251041 0.624655
vt 0.251041 0.813780
vt 0.083854 0.837487
vt 0.030509 0.837487
vt 0.083790 0.126532
vt 0.030519 0.097717
vt 0.083788 0.097717
vt 0.083819 0.385453
vt 0.030509 0.378338
vt 0.083801 0.285128
vt 0.224856 0.492729
vt 0.145991 0.481592
vt 0.224856 0.353675
vt 0.643589 0.750243
vt 0.647062 0.720907
vt 0.771675 0.720907
vt 0.768202 0.750243
vt 0.644262 0.322974
vt 0.626217 0.457576
vt 0.513691 0.323271
vt 0.669170 0.057261
vt 0.673346 0.027926
vt 0.790196 0.027926
vt 0.787413 0.057261
vt 0.616110 0.781333
vt 0.597386 0.918283
vt 0.490614 0.781333
vt 0.688600 0.291453
vt 0.692154 0.262118
vt 0.802073 0.262118
vt 0.799405 0.291453
vt 0.598245 0.093449
vt 0.596179 0.229403
vt 0.482105 0.093919
vt 0.698785 0.518856
vt 0.702433 0.489521
vt 0.802112 0.489521
vt 0.800111 0.518856
vt 0.588489 0.550362
vt 0.554917 0.686566
vt 0.480120 0.551148
vt 0.731625 0.978555
vt 0.734691 0.949220
vt 0.830766 0.949220
vt 0.828722 0.978555
vt 0.638950 0.294446
vt 0.516059 0.294922
vt 0.120137 0.608873
vt 0.120137 0.813780
vt 0.610819 0.753030
vt 0.493414 0.753303
vt 0.737250 0.485604
vt 0.966267 0.485996
vt 0.592867 0.064665
vt 0.485320 0.065157
vt 0.702178 0.944993
vt 0.968779 0.944993
vt 0.583074 0.521573
vt 0.482937 0.522463
vt 0.692219 0.257383
vt 0.970063 0.257669
vt 0.112654 0.380036
vt 0.112624 0.287301
vt 0.643466 0.715132
vt 0.966267 0.714956
vt 0.001644 0.463130
vt 0.001630 0.808423
vt 0.251040 0.487948
vt 0.251040 0.351240
vt 0.120137 0.476360
vt 0.620859 0.486082
vt 0.591929 0.944993
vt 0.590913 0.258167
vt 0.549621 0.715330
vt 0.001675 0.372923
vt 0.997449 0.720907
vt 0.997449 0.750243
vt 0.997408 0.027926
vt 0.997408 0.057261
vt 0.995171 0.262118
vt 0.995171 0.291453
vt 0.995171 0.489521
vt 0.995171 0.518856
vt 0.995171 0.949220
vt 0.995171 0.978555
vt 0.284375 0.294372
vt 0.286887 0.753121
vt 0.288172 0.066442
vt 0.284375 0.523794
vt 0.112607 0.126532
vt 0.251041 0.126609
vt 0.518880 0.750243
vt 0.523510 0.720907
vt 0.544941 0.057261
vt 0.550978 0.027926
vt 0.572916 0.291453
vt 0.578961 0.262118
vt 0.588547 0.518856
vt 0.593643 0.489521
vt 0.630381 0.978555
vt 0.634470 0.949220
vt 0.117986 0.609246
vt 0.117920 0.813780
vt 0.305111 0.750243
vt 0.305111 0.720907
vt 0.515648 0.294443
vt 0.638988 0.293967
vt 0.118017 0.476322
vt 0.118018 0.343359
vt 0.284375 0.293802
vt 0.117968 0.126609
vt 0.762349 0.294635
vt 0.737778 0.486414
vt 0.966267 0.486857
vt 0.301643 0.057261
vt 0.301643 0.027926
vt 0.493027 0.752484
vt 0.610861 0.752484
vt 0.620822 0.486873
vt 0.504106 0.486152
vt 0.286887 0.752484
vt 0.284375 0.485713
vt 0.728702 0.752484
vt 0.702900 0.946456
vt 0.968779 0.946018
vt 0.301875 0.291453
vt 0.301875 0.262118
vt 0.484956 0.064612
vt 0.592905 0.064121
vt 0.591892 0.946456
vt 0.481169 0.946237
vt 0.288172 0.065910
vt 0.701308 0.064481
vt 0.693037 0.257930
vt 0.970063 0.258296
vt 0.301875 0.518856
vt 0.301875 0.489521
vt 0.482528 0.521906
vt 0.583111 0.521015
vt 0.590879 0.258695
vt 0.489215 0.258642
vt 0.284375 0.523274
vt 0.684111 0.521703
vt 0.644540 0.715677
vt 0.966267 0.715525
vt 0.301875 0.978555
vt 0.301875 0.949220
vt 0.113183 0.287000
vt 0.113213 0.380075
vt 0.549587 0.715859
vt 0.455431 0.716289
vt 0.113163 0.126532
vt 0.284375 0.717315
vt 0.113230 0.474006
vt 0.966267 0.294246
vt 0.968779 0.752484
vt 0.970063 0.064083
vt 0.966267 0.521234
vt 0.113499 0.808423
vt 0.288172 0.259608
vt 0.286888 0.945201
vn 0.0000 -1.0000 0.0000
vn -0.0046 -1.0000 0.0068
vn -0.0035 -1.0000 0.0053
vn -0.0055 -1.0000 0.0082
vn -0.0118 -0.9999 0.0108
vn -0.0103 -0.9999 0.0101
vn -0.0258 -0.9993 0.0265
vn -0.0239 -0.9990 0.0371
vn -0.0244 -0.9991 0.0343
vn -0.0312 -0.9994 -0.0151
vn -0.0284 -0.9994 -0.0194
vn -0.0287 -0.9994 -0.0189
vn -0.0108 -0.9996 -0.0250
vn -0.0113 -0.9993 -0.0368
vn -0.0111 -0.9994 -0.0318
vn 0.0000 0.0000 -1.0000
vn 0.0000 0.0000 1.0000
vn -1.0000 0.0000 0.0000
vn 1.0000 0.0000 0.0000
vn -0.0008 -0.9999 0.0153
vn 0.0008 -0.9999 0.0155
vn 0.0034 -1.0000 0.0060
vn 0.0039 -1.0000 0.0068
vn -0.0017 -1.0000 -0.0008
vn 0.0017 -1.0000 -0.0001
vn 0.0069 -1.0000 0.0005
vn 0.0079 -1.0000 0.0011
vn -0.0017 -0.9999 0.0166
vn 0.0017 -0.9999 0.0171
vn 0.0108 -0.9999 0.0127
vn 0.0115 -0.9998 0.0132
vn -0.0018 -1.0000 -0.0010
vn 0.0018 -1.0000 -0.0000
vn 0.0151 -0.9999 0.0012
vn 0.0159 -0.9999 0.0014
vn -0.0014 -0.9984 0.0562
vn 0.0022 -0.9984 0.0566
vn 0.0280 -0.9988 0.0401
vn 0.0276 -0.9988 0.0415
vn -0.0018 -1.0000 -0.0017
vn 0.0021 -1.0000 0.0005
vn 0.0432 -0.9991 0.0028
vn 0.0418 -0.9991 0.0019
vn 0.0002 -0.9996 -0.0280
vn 0.0007 -0.9996 -0.0279
vn 0.0356 -0.9992 -0.0191
vn 0.0359 -0.9992 -0.0188
vn -0.0021 -1.0000 -0.0013
vn 0.0021 -1.0000 0.0002
vn 0.0306 -0.9995 0.0020
vn 0.0302 -0.9995 0.0016
vn -0.0019 -0.9984 -0.0570
vn 0.0019 -0.9984 -0.0561
vn 0.0163 -0.9994 -0.0317
vn 0.0156 -0.9992 -0.0355
vn 0.0000 -1.0000 -0.0002
vn 0.0001 -1.0000 0.0002
vn 0.0056 -0.9999 0.0089
vn 0.0115 -0.9999 0.0002
vn 0.0115 -0.9999 0.0007
vn 0.0316 -0.9991 0.0294
vn 0.0531 -0.9986 0.0025
vn 0.0531 -0.9986 0.0019
vn 0.0432 -0.9990 -0.0140
vn 0.0331 -0.9995 0.0014
vn 0.0330 -0.9995 0.0011
vn 0.0182 -0.9996 -0.0216
vn -0.0065 -1.0000 -0.0007
vn -0.0086 -1.0000 -0.0015
vn -0.0131 -0.9999 -0.0015
vn -0.0143 -0.9999 -0.0020
vn -0.0341 -0.9994 -0.0037
vn -0.0328 -0.9995 -0.0033
vn -0.0229 -0.9997 -0.0024
vn -0.0232 -0.9997 -0.0026
vn -0.0117 -0.9999 -0.0022
vn -0.0000 -1.0000 0.0092
vn -0.0000 -1.0000 0.0004
vn -0.0001 -1.0000 -0.0001
vn 0.0016 -1.0000 0.0021
vn 0.0120 -0.9999 -0.0005
vn 0.0128 -0.9999 0.0052
vn -0.0010 -1.0000 -0.0060
vn 0.0000 -1.0000 -0.0093
vn 0.0000 -0.9999 0.0152
vn -0.0131 -0.9999 -0.0072
vn -0.0159 -0.9999 -0.0049
vn -0.0099 -1.0000 0.0013
vn -0.0098 -1.0000 -0.0007
vn -0.0098 -1.0000 -0.0010
vn 0.0007 -1.0000 0.0064
vn 0.0169 -0.9998 0.0045
vn 0.0169 -0.9999 -0.0011
vn -0.0006 -1.0000 -0.0091
vn 0.0116 -0.9999 -0.0018
vn 0.0115 -0.9999 0.0057
vn -0.0164 -0.9999 -0.0021
vn -0.0292 -0.9990 -0.0346
vn -0.0379 -0.9992 -0.0132
vn -0.0375 -0.9993 -0.0035
vn -0.0375 -0.9993 -0.0033
vn 0.0012 -0.9992 0.0411
vn 0.0369 -0.9986 0.0370
vn 0.0360 -0.9989 -0.0293
vn -0.0009 -0.9989 -0.0469
vn 0.0535 -0.9984 0.0194
vn -0.0284 -0.9994 0.0193
vn -0.0241 -0.9995 -0.0182
vn -0.0225 -0.9997 -0.0043
vn -0.0223 -0.9997 -0.0019
vn -0.0223 -0.9997 -0.0020
vn 0.0011 -0.9998 0.0213
vn 0.0290 -0.9994 0.0212
vn 0.0285 -0.9995 -0.0145
vn -0.0011 -0.9996 -0.0268
vn 0.0333 -0.9994 0.0079
vn -0.0241 -0.9997 0.0035
vn 0.0000 -1.0000 0.0001
vn -0.0000 -0.9999 -0.0163
vn -0.0097 -0.9999 -0.0071
vn -0.0372 -0.9993 -0.0008
vn -0.0221 -0.9997 -0.0065
vn 0.0329 -0.9995 0.0008
vn 0.0528 -0.9986 -0.0088
usemtl ./mat0
s 1
f 1/1/1 2/2/1 3/3/1 4/4/1
f 5/5/1 6/6/1 7/7/2 8/8/3
f 9/9/4 10/10/4 11/11/5 12/12/6
f 13/13/7 14/14/7 15/15/8 16/16/9
f 17/17/10 18/18/10 19/19/11 20/20/12
f 21/21/13 22/22/13 23/23/14 24/24/15
f 9/9/16 12/12/16 25/25/16 26/26/16
f 27/27/17 28/28/17 29/29/17 30/30/17
f 13/13/16 16/16/16 31/31/16 32/32/16
f 33/33/17 34/34/17 35/35/17 36/36/17
f 17/17/16 20/20/16 37/37/16 38/38/16
f 39/39/17 40/40/17 41/41/17 42/42/17
f 21/21/16 24/24/16 43/43/16 44/44/16
f 45/45/17 46/46/17 47/47/17 48/48/17
f 4/4/16 3/3/16 49/49/16 50/50/16
f 51/51/17 52/52/17 53/53/17 54/54/17
f 27/27/18 30/55/18 55/56/18 56/57/18
f 57/58/19 6/6/19 5/5/19 58/59/19
f 33/33/18 36/60/18 59/61/18 60/62/18
f 61/63/19 10/10/19 9/9/19 26/64/19
f 39/39/18 42/65/18 62/66/18 63/67/18
f 64/68/19 14/14/19 13/13/19 32/69/19
f 45/45/18 48/70/18 65/71/18 66/72/18
f 67/73/19 18/18/19 17/17/19 38/74/19
f 51/51/18 54/75/18 68/76/18 69/77/18
f 70/78/19 22/22/19 21/21/19 44/79/19
f 71/80/17 72/81/17 73/82/17 74/83/17
f 5/5/16 8/8/16 75/84/16 58/85/16
f 1/1/19 4/4/19 50/86/19 76/87/19
f 77/88/18 71/80/18 74/89/18 78/90/18
f 79/91/1 80/92/1 72/81/1 81/93/1
f 82/94/20 83/95/21 28/28/22 84/96/23
f 85/97/24 86/98/25 87/99/26 88/100/27
f 89/101/28 90/102/29 34/34/30 91/103/31
f 92/104/32 93/105/33 94/106/34 95/107/35
f 96/108/36 97/109/37 40/40/38 98/110/39
f 99/111/40 100/112/41 101/113/42 102/114/43
f 103/115/44 104/116/45 46/46/46 105/117/47
f 106/118/48 107/119/49 108/120/50 109/121/51
f 110/122/52 111/123/53 52/52/54 112/124/55
f 113/125/1 114/126/1 115/127/1 116/128/1
f 117/129/16 89/101/16 91/103/16 118/130/16
f 119/131/17 7/7/17 6/6/17 57/132/17
f 120/133/16 96/108/16 98/110/16 121/134/16
f 122/135/17 11/11/17 10/10/17 61/136/17
f 123/137/16 103/115/16 105/117/16 124/138/16
f 125/139/17 15/15/17 14/14/17 64/140/17
f 126/141/16 110/122/16 112/124/16 127/142/16
f 128/143/17 19/19/17 18/18/17 67/144/17
f 129/145/16 79/91/16 81/93/16 130/146/16
f 131/147/17 23/23/17 22/22/17 70/148/17
f 132/149/17 2/2/17 1/1/17 76/150/17
f 133/151/16 82/94/16 84/96/16 134/152/16
f 29/29/17 28/28/17 83/95/17 135/153/17
f 35/35/17 34/34/17 90/102/17 136/154/17
f 41/41/17 40/40/17 97/109/17 137/155/17
f 47/47/17 46/46/17 104/116/17 138/156/17
f 53/53/17 52/52/17 111/123/17 139/157/17
f 73/82/17 72/81/17 80/92/17 140/158/17
f 81/93/1 72/81/1 71/80/1 77/88/1
f 84/96/23 28/28/22 27/27/1 56/57/1
f 88/100/27 87/99/26 141/159/56 142/160/57
f 91/103/31 34/34/30 33/33/58 60/62/58
f 95/107/35 94/106/34 143/161/59 144/162/60
f 98/110/39 40/40/38 39/39/61 63/67/61
f 102/114/43 101/113/42 145/163/62 146/164/63
f 105/117/47 46/46/46 45/45/64 66/72/64
f 109/121/51 108/120/50 147/165/65 148/166/66
f 112/124/55 52/52/54 51/51/67 69/77/67
f 116/128/1 115/127/1 149/167/1 150/168/1
f 118/130/16 91/103/16 60/62/16 59/169/16
f 121/134/16 98/110/16 63/67/16 62/170/16
f 124/138/16 105/117/16 66/72/16 65/171/16
f 127/142/16 112/124/16 69/77/16 68/172/16
f 130/146/16 81/93/16 77/88/16 78/173/16
f 134/152/16 84/96/16 56/57/16 55/174/16
f 75/84/16 8/8/16 82/94/16 133/151/16
f 8/8/3 7/7/2 83/95/21 82/94/20
f 135/153/17 83/95/17 7/7/17 119/131/17
f 151/175/68 152/176/69 86/98/25 85/97/24
f 25/25/16 12/12/16 89/101/16 117/129/16
f 12/12/6 11/11/5 90/102/29 89/101/28
f 136/154/17 90/102/17 11/11/17 122/135/17
f 153/177/70 154/178/71 93/105/33 92/104/32
f 31/31/16 16/16/16 96/108/16 120/133/16
f 16/16/9 15/15/8 97/109/37 96/108/36
f 137/155/17 97/109/17 15/15/17 125/139/17
f 155/179/72 156/180/73 100/112/41 99/111/40
f 37/37/16 20/20/16 103/115/16 123/137/16
f 20/20/12 19/19/11 104/116/45 103/115/44
f 138/156/17 104/116/17 19/19/17 128/143/17
f 157/181/74 158/182/75 107/119/49 106/118/48
f 43/43/16 24/24/16 110/122/16 126/141/16
f 24/24/15 23/23/14 111/123/53 110/122/52
f 139/157/17 111/123/17 23/23/17 131/147/17
f 159/183/1 160/184/1 114/126/1 113/125/1
f 49/49/16 3/3/16 79/91/16 129/145/16
f 3/3/1 2/2/1 80/92/1 79/91/1
f 140/158/17 80/92/17 2/2/17 132/149/17
f 151/185/68 119/131/76 57/132/77 161/186/78
f 151/175/68 161/187/78 162/188/79 152/176/69
f 117/129/80 118/130/81 87/189/26 86/190/25
f 29/29/82 135/153/83 85/191/24 88/192/27
f 87/189/26 118/130/81 59/169/84 141/193/56
f 88/192/27 142/194/57 30/30/85 29/29/82
f 25/25/86 117/129/80 86/190/25 152/195/69
f 135/153/83 119/131/76 151/185/68 85/191/24
f 153/196/70 122/135/87 61/136/88 163/197/89
f 153/177/70 163/198/89 164/199/90 154/178/71
f 120/133/91 121/134/92 94/200/34 93/201/33
f 35/35/93 136/154/94 92/202/32 95/203/35
f 94/200/34 121/134/92 62/170/95 143/204/59
f 95/203/35 144/205/60 36/36/96 35/35/93
f 31/31/97 120/133/91 93/201/33 154/206/71
f 136/154/94 122/135/87 153/196/70 92/202/32
f 155/207/72 125/139/98 64/140/99 165/208/100
f 155/179/72 165/209/100 166/210/101 156/180/73
f 123/137/102 124/138/103 101/211/42 100/212/41
f 41/41/104 137/155/105 99/213/40 102/214/43
f 101/211/42 124/138/103 65/171/106 145/215/62
f 37/37/107 123/137/102 100/212/41 156/216/73
f 137/155/105 125/139/98 155/207/72 99/213/40
f 157/217/74 128/143/108 67/144/109 167/218/110
f 157/181/74 167/219/110 168/220/111 158/182/75
f 126/141/112 127/142/113 108/221/50 107/222/49
f 47/47/114 138/156/115 106/223/48 109/224/51
f 108/221/50 127/142/113 68/172/116 147/225/65
f 43/43/117 126/141/112 107/222/49 158/226/75
f 138/156/115 128/143/108 157/217/74 106/223/48
f 159/227/1 131/147/1 70/148/1 169/228/1
f 159/183/1 169/229/1 170/230/1 160/184/1
f 129/145/1 130/146/1 115/231/1 114/232/1
f 53/53/1 139/157/1 113/233/1 116/234/1
f 115/231/1 130/146/1 78/173/118 149/235/1
f 116/234/1 150/236/1 54/54/1 53/53/1
f 49/49/1 129/145/1 114/232/1 160/237/1
f 139/157/1 131/147/1 159/227/1 113/233/1
f 152/195/69 162/238/79 26/26/119 25/25/86
f 154/206/71 164/239/90 32/32/120 31/31/97
f 156/216/73 166/240/101 38/38/121 37/37/107
f 158/226/75 168/241/111 44/44/122 43/43/117
f 160/237/1 170/242/1 50/50/1 49/49/1
f 109/224/51 148/243/66 48/48/123 47/47/114
f 102/214/43 146/244/63 42/42/124 41/41/104
o walls
v -217.027939 -0.710409 390.477997
v -217.027939 278.325531 390.477966
v 217.027939 278.325531 390.477966
v 217.027939 -0.710409 390.477997
v -217.027939 278.325439 -136.589844
v -217.027939 -0.710496 -136.589828
v 217.027939 -0.710496 -136.589828
v 217.027939 278.325439 -136.589844
vt 0.267425 0.287539
vt 0.017422 0.287538
vt 0.017432 0.676423
vt 0.267415 0.676445
vt 0.979774 0.287525
vt 0.739667 0.287565
vt 0.739657 0.676461
vt 0.990958 0.676420
vt 0.267419 0.926419
vt 0.739654 0.919782
vt 0.739633 0.037531
vt 0.267425 0.037539
vn 0.0000 -0.0000 -1.0000
vn 0.0000 0.0000 1.0000
vn 0.0000 1.0000 -0.0000
vn -1.0000 0.0000 0.0000
vn 1.0000 0.0000 0.0000
usemtl ./mat1
s 1
f 171/245/125 172/246/125 173/247/125 174/248/125
f 175/249/126 176/250/126 177/251/126 178/252/126
f 176/250/127 171/245/127 174/248/127 177/251/127
f 174/248/128 173/253/128 178/254/128 177/251/128
f 176/250/129 175/255/129 172/256/129 171/245/129
o door
v -53.305088 0.815871 -130.668839
v 53.305088 0.815871 -130.668839
v 53.305088 250.065491 -130.668884
v -53.305088 250.065491 -130.668884
v 53.305088 0.815870 -134.491959
v 53.305088 250.065491 -134.492004
v -53.305088 250.065491 -134.492004
v -53.305088 0.815870 -134.491959
v -67.029716 264.139374 -130.631226
v 67.029716 264.139374 -130.631226
v 67.029716 264.139374 -142.606049
v -67.029716 264.139374 -142.606049
v 67.029716 -0.710428 -130.631195
v 67.029716 -0.710430 -142.606003
v -67.029716 -0.710430 -142.606003
v -67.029716 -0.710428 -130.631195
v -53.886692 250.760666 -130.631226
v 53.886692 250.760666 -130.631226
v 53.886692 250.760666 -142.606049
v -53.886692 250.760666 -142.606049
v 53.886692 -0.710436 -130.631195
v 53.886692 -0.710438 -142.606003
v -53.886692 -0.710438 -142.606003
v -53.886692 -0.710436 -130.631195
v 53.886692 250.760666 -134.491989
v 53.886692 -0.710437 -134.491943
v -53.886692 250.760666 -134.491989
v -53.886692 -0.710437 -134.491943
vt 0.058705 0.498559
vt 0.058705 0.120246
vt 0.943182 0.120246
vt 0.943182 0.498559
vt 0.059009 0.010938
vt 0.943486 0.010938
vt 0.992153 0.120246
vt 0.992153 0.498559
vt 0.942881 0.617146
vt 0.058404 0.617146
vt 0.011831 0.857724
vt 0.290821 0.857724
vt 0.290821 0.977055
vt 0.011831 0.977055
vt 0.009735 0.498559
vt 0.009735 0.120246
vt 0.005013 0.796815
vt 0.384399 0.796815
vt 0.384399 0.834605
vt 0.005013 0.834605
vt 0.972329 0.924387
vt 0.972329 0.963009
vt 0.300444 0.963009
vt 0.300444 0.924387
vt 0.972329 0.659275
vt 0.972329 0.699070
vt 0.300444 0.699070
vt 0.300444 0.659275
vt 0.043285 0.751393
vt 0.344460 0.751393
vt 0.107228 0.671899
vt 0.269334 0.671898
vt 0.296564 0.703062
vt 0.083397 0.703062
vt 0.972329 0.884448
vt 0.998043 0.884448
vt 0.998043 0.924387
vt 0.878087 0.801285
vt 0.451361 0.801285
vt 0.420198 0.777454
vt 0.878086 0.777454
vt 0.345866 0.884448
vt 0.998043 0.737342
vt 0.972329 0.737342
vt 0.998043 0.699070
vt 0.345866 0.737342
vt 0.451361 0.809323
vt 0.878086 0.809323
vt 0.878086 0.836552
vt 0.420198 0.836552
vt 0.386551 0.841207
vt 0.972329 0.841207
vt 0.079092 0.710708
vt 0.301219 0.710708
vt 0.972329 0.773149
vt 0.386551 0.773149
vn 0.0000 0.0000 1.0000
vn 1.0000 0.0000 0.0000
vn 0.0000 1.0000 0.0000
vn -1.0000 0.0000 0.0000
vn 0.0000 -0.0000 -1.0000
vn 0.0000 -1.0000 0.0000
usemtl ./mat2
s 1
f 179/257/130 180/258/130 181/259/130 182/260/130
f 183/261/131 184/262/131 181/259/131 180/258/131
f 184/263/132 185/264/132 182/260/132 181/259/132
f 185/265/133 186/266/133 179/257/133 182/260/133
f 184/267/134 183/268/134 186/269/134 185/270/134
f 186/271/135 183/272/135 180/258/135 179/257/135
usemtl ./mat3
f 187/273/132 188/274/132 189/275/132 190/276/132
f 191/277/131 192/278/131 189/279/131 188/280/131
f 193/281/133 194/282/133 187/283/133 190/284/133
f 195/285/130 196/286/130 188/274/130 187/273/130
f 197/287/134 198/288/134 190/289/134 189/290/134
f 199/291/135 200/292/135 192/293/135 191/277/135
f 200/294/134 197/295/134 189/296/134 192/297/134
f 196/298/130 199/291/130 191/277/130 188/280/130
f 201/299/135 202/300/135 194/282/135 193/301/135
f 202/300/130 195/302/130 187/283/130 194/282/130
f 198/303/134 201/304/134 193/305/134 190/306/134
f 199/291/133 196/298/133 203/307/133 204/308/133
f 196/286/135 195/285/135 205/309/135 203/310/135
f 195/302/131 202/300/131 206/311/131 205/312/131
